<svg width="43" height="43" viewBox="0 0 43 43" fill="none" xmlns="http://www.w3.org/2000/svg">
<path d="M19.7603 4.55099C20.2925 4.25544 20.8912 4.10034 21.5 4.10034C22.1088 4.10034 22.7075 4.25544 23.2397 4.55099L36.7041 12.0294C36.9832 12.1846 37.2158 12.4117 37.3777 12.687C37.5396 12.9623 37.625 13.2759 37.625 13.5953V28.3497C37.6248 28.9887 37.4538 29.616 37.1297 30.1667C36.8055 30.7173 36.34 31.1713 35.7814 31.4815L23.2397 38.4511C22.7075 38.7467 22.1088 38.9018 21.5 38.9018C20.8912 38.9018 20.2925 38.7467 19.7603 38.4511L7.21862 31.4815C6.66026 31.1715 6.19492 30.7178 5.87078 30.1675C5.54664 29.6171 5.37547 28.9902 5.375 28.3515V13.5953C5.37499 13.2759 5.46036 12.9623 5.62228 12.687C5.78419 12.4117 6.01677 12.1846 6.29592 12.0294L19.7621 4.55099H19.7603Z" stroke="#102839" stroke-width="4.25" stroke-linecap="round" stroke-linejoin="round"/>
<path d="M21.5 21.5003V39.417M5.375 12.542L21.5 21.5003L5.375 12.542ZM21.5 21.5003L37.625 12.542L21.5 21.5003Z" stroke="#102839" stroke-width="4.25" stroke-linejoin="round"/>
<path d="M13.4375 17.0211L29.5625 8.06274" stroke="#102839" stroke-width="4.25" stroke-linecap="round" stroke-linejoin="round"/>
<path d="M10.75 22.0881L16.125 25.0838" stroke="#102839" stroke-width="4.25" stroke-linecap="round" stroke-linejoin="round"/>
</svg>
