<svg width="40" height="39" viewBox="0 0 40 39" fill="none" xmlns="http://www.w3.org/2000/svg">
<path d="M27.5 5.5C27.5 4.83696 27.7634 4.20107 28.2322 3.73223C28.7011 3.26339 29.337 3 30 3H35C35.663 3 36.2989 3.26339 36.7678 3.73223C37.2366 4.20107 37.5 4.83696 37.5 5.5V35.5H38.75C39.0815 35.5 39.3995 35.6317 39.6339 35.8661C39.8683 36.1005 40 36.4185 40 36.75C40 37.0815 39.8683 37.3995 39.6339 37.6339C39.3995 37.8683 39.0815 38 38.75 38H1.25C0.918479 38 0.600537 37.8683 0.366117 37.6339C0.131696 37.3995 0 37.0815 0 36.75C0 36.4185 0.131696 36.1005 0.366117 35.8661C0.600537 35.6317 0.918479 35.5 1.25 35.5H2.5V28C2.5 27.337 2.76339 26.7011 3.23223 26.2322C3.70107 25.7634 4.33696 25.5 5 25.5H10C10.663 25.5 11.2989 25.7634 11.7678 26.2322C12.2366 26.7011 12.5 27.337 12.5 28V35.5H15V18C15 17.337 15.2634 16.7011 15.7322 16.2322C16.2011 15.7634 16.837 15.5 17.5 15.5H22.5C23.163 15.5 23.7989 15.7634 24.2678 16.2322C24.7366 16.7011 25 17.337 25 18V35.5H27.5V5.5Z" fill="#102839"/>
</svg>
