<svg width="39" height="39" viewBox="0 0 39 39" fill="none" xmlns="http://www.w3.org/2000/svg">
<path d="M32.9062 28.0312H12.1875L6.09375 2.4375H2.4375M7.3125 7.3125H36.5625L32.9062 23.1562H10.9688L7.3125 7.3125Z" stroke="#102839" stroke-width="3.125" stroke-linecap="round" stroke-linejoin="round"/>
<path d="M30.4688 35.3438C31.8149 35.3438 32.9062 34.2524 32.9062 32.9062C32.9062 31.5601 31.8149 30.4688 30.4688 30.4688C29.1226 30.4688 28.0312 31.5601 28.0312 32.9062C28.0312 34.2524 29.1226 35.3438 30.4688 35.3438Z" stroke="#102839" stroke-width="3.125" stroke-linecap="round" stroke-linejoin="round"/>
<path d="M14.625 35.3438C15.9712 35.3438 17.0625 34.2524 17.0625 32.9062C17.0625 31.5601 15.9712 30.4688 14.625 30.4688C13.2788 30.4688 12.1875 31.5601 12.1875 32.9062C12.1875 34.2524 13.2788 35.3438 14.625 35.3438Z" stroke="#102839" stroke-width="3.125" stroke-linecap="round" stroke-linejoin="round"/>
</svg>
